:SAMPLES-PER-SECOND 30
:FRAME-RANGE 1-2009
:FULLY-SPECIFIED
:DEGREES
252
root  -23.8788 38.3506 86.9374 3.37271 -13.2629 0.584705
RightUpLeg  -10.1473 -7.5621 -4.49598
RightLeg  53.0344 -0.0098911 -0.39433
RightFoot  -3.91638 -0.955986 14.2516
RightToes  2.96424e-010 1.2921e-014 -6.02303e-014
Spine  -7.0292 -2.28007 -2.82495
Spine1  11.7201 -1.77986 -3.82491
HEad  33.5271 -3.2285 -2.27596
LeftShoulder1  0.995688 -0.00930303 -24.0545
LeftArm  -0.97156 8.07327 -48.4616
LeftForeArm  38.9831 2.56578 -13.2074
LeftHand  -0.033129 4.80326 2.4105
RightShoulder  1.49552 1.34833 26.0763
RightArm  -35.4563 -15.9954 39.7941
RightForeArm  27.609 -5.5289 -1.62406
RightHand  -0.754829 -1.65808 -23.2483
LeftUpLeg  -17.6104 -2.02217 -8.28517
LeftLeg  15.7801 18.3413 6.19843
LeftFoot  -2.65424 -0.480297 6.52725
LeftToes  -1.2485e-010 1.20979e-011 -1.0929e-011
253
root  -23.8846 38.3244 87.7267 2.67028 -11.7304 0.707061
RightUpLeg  -13.8881 -5.4681 -4.86764
RightLeg  60.1232 -0.150476 -0.773008
RightFoot  1.7348 -1.00036 8.81544
RightToes  2.96424e-010 1.2921e-014 -6.02303e-014
Spine  -6.63977 -2.42218 -3.87278
Spine1  11.5167 -2.04617 -3.62819
HEad  33.7938 -2.25254 -2.26024
LeftShoulder1  1.0584 -0.191686 -24.2938
LeftArm  -0.332911 8.31042 -48.1815
LeftForeArm  38.7475 2.3535 -13.3956
LeftHand  -0.031744 4.66856 2.37961
RightShoulder  1.51661 1.37857 26.332
RightArm  -35.8604 -13.069 41.6948
RightForeArm  25.1428 -2.27795 -1.00747
RightHand  -0.843237 -1.33523 -23.9134
LeftUpLeg  -15.8421 -1.74863 -8.94133
LeftLeg  16.3832 16.7701 5.90387
LeftFoot  -4.30193 -0.396663 6.8627
LeftToes  -1.2485e-010 1.20979e-011 -1.0929e-011
254
root  -23.8732 38.2398 88.4678 2.05821 -10.2335 0.874899
RightUpLeg  -16.3508 -2.40522 -5.34221
RightLeg  64.2361 0.0206422 -0.534926
RightFoot  0.00190826 -0.914748 9.19189
RightToes  2.96424e-010 1.2921e-014 -6.02303e-014
Spine  -6.36717 -2.47403 -4.95335
Spine1  11.3746 -2.27035 -3.60588
HEad  34.3576 -1.82007 -2.26634
LeftShoulder1  1.10876 -0.346794 -24.3931
LeftArm  -0.174007 8.09709 -48.2068
LeftForeArm  39.1865 2.41121 -13.4436
LeftHand  -0.0326361 4.75193 2.47069
RightShoulder  1.51094 1.33655 26.5089
RightArm  -36.588 -9.24841 43.1052
RightForeArm  23.3253 1.54225 -0.576786
RightHand  -0.877004 -1.32953 -24.8172
LeftUpLeg  -14.459 -1.4355 -9.61584
LeftLeg  17.45 15.1881 5.77017
LeftFoot  -6.10815 -0.286186 7.05931
LeftToes  -1.2485e-010 1.20979e-011 -1.0929e-011
255
root  -23.8305 38.2209 89.2425 1.50608 -8.31725 0.571907
RightUpLeg  -18.0509 0.641265 -5.24463
RightLeg  65.4744 -0.0628268 -0.767726
RightFoot  -1.75667 -0.664321 7.76867
RightToes  2.96424e-010 1.2921e-014 -6.02303e-014
Spine  -6.11761 -2.60484 -5.44509
Spine1  10.977 -2.64824 -3.05456
HEad  35.275 -1.20506 -2.79942
LeftShoulder1  1.18224 -0.587912 -24.4023
LeftArm  -0.330595 7.66322 -48.5743
LeftForeArm  39.3751 2.54445 -13.4068
LeftHand  -0.0370674 4.98957 2.43919
RightShoulder  1.46258 1.20261 26.392
RightArm  -37.8201 -5.27896 44.1724
RightForeArm  23.0097 5.52234 -0.376296
RightHand  -1.10014 -0.296349 -24.8622
LeftUpLeg  -12.6839 -0.815471 -9.70864
LeftLeg  17.8726 13.0888 5.08372
LeftFoot  -7.63092 -0.203618 7.69481
LeftToes  -1.2485e-010 1.20979e-011 -1.0929e-011
256
root  -23.7481 38.2149 90.0213 1.10973 -6.08279 0.142055
RightUpLeg  -19.4286 3.72238 -5.07499
RightLeg  64.303 -0.714886 -2.2078
RightFoot  -2.13671 -0.589683 7.13445
RightToes  2.96424e-010 1.2921e-014 -6.02303e-014
Spine  -5.886 -2.83621 -5.62761
Spine1  10.3024 -3.07826 -2.36709
HEad  35.8803 -1.549 -2.9449
LeftShoulder1  1.258 -0.863682 -24.203
LeftArm  -0.421355 7.04097 -49.2264
LeftForeArm  39.2287 2.56546 -13.3869
LeftHand  -0.0351391 4.89456 2.59196
RightShoulder  1.38918 0.996428 26.2233
RightArm  -39.2721 -1.46541 44.862
RightForeArm  22.8153 10.22 0.0598099
RightHand  -1.22589 0.070554 -25.8247
LeftUpLeg  -10.9102 -0.437059 -9.68115
LeftLeg  18.016 10.9786 4.41914
LeftFoot  -8.89669 -0.124331 8.32559
LeftToes  -1.2485e-010 1.20979e-011 -1.0929e-011
257
root  -23.6402 38.2092 90.7985 0.66155 -3.65772 -0.310043
RightUpLeg  -20.1948 6.77658 -4.87516
RightLeg  61.1208 -2.19768 -4.8228
RightFoot  -2.95852 -0.499661 6.53491
RightToes  2.96424e-010 1.2921e-014 -6.02303e-014
Spine  -5.79684 -3.08797 -5.74818
Spine1  10.0078 -3.50269 -1.60309
HEad  36.1538 -2.0636 -3.01636
LeftShoulder1  1.34345 -1.22785 -23.638
LeftArm  -0.523596 6.06256 -50.3278
LeftForeArm  39.181 2.39651 -13.351
LeftHand  -0.0359364 4.83803 2.54487
RightShoulder  1.29134 0.724922 25.9434
RightArm  -41.5792 2.46847 44.993
RightForeArm  24.2117 15.0863 0.980482
RightHand  -1.29975 0.334406 -26.1165
LeftUpLeg  -9.06536 -0.153541 -9.57115
LeftLeg  18.1524 8.67167 3.73948
LeftFoot  -10.1507 -0.0298289 8.74214
LeftToes  -1.2485e-010 1.20979e-011 -1.0929e-011
258
root  -23.4981 38.1981 91.581 0.3501 -1.17485 -0.761893
RightUpLeg  -20.7579 9.92389 -4.70685
RightLeg  56.5407 -4.52336 -7.75065
RightFoot  -4.49094 -0.339459 5.15609
RightToes  2.96424e-010 1.2921e-014 -6.02303e-014
Spine  -5.72605 -3.36395 -5.73342
Spine1  9.61263 -3.89184 -0.863209
HEad  36.3514 -2.96063 -2.92958
LeftShoulder1  1.38622 -1.41529 -23.3537
LeftArm  0.0540278 4.84948 -51.0903
LeftForeArm  39.1225 1.80625 -13.4283
LeftHand  -0.0374747 4.73701 2.68119
RightShoulder  1.17812 0.387208 25.7788
RightArm  -45.2119 5.86889 44.5481
RightForeArm  26.4101 20.5027 2.7003
RightHand  -1.22806 -0.333076 -27.8485
LeftUpLeg  -7.22117 -0.12052 -9.49219
LeftLeg  17.9845 6.7216 3.25673
LeftFoot  -11.1226 0.0484239 9.74075
LeftToes  -1.2485e-010 1.20979e-011 -1.0929e-011
259
root  -23.3194 38.2109 92.3839 0.15346 1.25519 -1.23891
RightUpLeg  -21.2198 13.25 -4.57919
RightLeg  50.7366 -6.88513 -9.28296
RightFoot  -5.07802 -0.200386 3.02965
RightToes  2.96424e-010 1.2921e-014 -6.02303e-014
Spine  -5.87125 -3.61276 -5.46376
Spine1  9.41141 -4.16833 -0.320586
HEad  36.4846 -4.08587 -2.73845
LeftShoulder1  1.46549 -1.74914 -22.9636
LeftArm  0.148708 3.76405 -51.9858
LeftForeArm  39.2529 1.07976 -13.3585
LeftHand  -0.0398856 4.68553 2.81622
RightShoulder  1.13043 0.260404 25.5561
RightArm  -47.7256 8.69733 43.3839
RightForeArm  28.2116 25.974 4.07055
RightHand  -1.27131 -0.368428 -28.9858
LeftUpLeg  -5.266 -0.122051 -9.3292
LeftLeg  17.3893 4.6458 2.72748
LeftFoot  -11.9679 0.128851 10.3359
LeftToes  -1.2485e-010 1.20979e-011 -1.0929e-011
